{
	"asset":{
		"version":"2.0",
		"generator":"Created using the official Cinema 4D glTF Exporter 1.000x284978"
	},
	"scenes":[{
		"nodes":[0]
	}],
	"nodes":[{
		"name":"solar_panel_dark",
		"children":[1,
		2,
		5,
		8,
		11]
	},
	{
		"name":"logo",
		"translation":[0.2866372764110565,
		4.8498640060424809,
		-1.755147061609109e-17],
		"rotation":[0.1530459225177765,
		-0.6903455257415772,
		0.1530459225177765,
		0.6903455257415772],
		"scale":[1.0,
		1.0,
		1.0],
		"mesh":0
	},
	{
		"name":"leg1",
		"translation":[0.35505804419517519,
		2.2784807682037355,
		-6.157210826873779],
		"rotation":[0.0,
		0.0,
		0.0,
		-1.0],
		"scale":[1.0,
		1.0,
		1.0],
		"children":[3,
		4]
	},
	{
		"name":"leg1-dark_grey",
		"mesh":1
	},
	{
		"name":"leg1-blue",
		"mesh":2
	},
	{
		"name":"leg2",
		"translation":[0.35505804419517519,
		2.2784807682037355,
		-4.3482072387829987e-17],
		"rotation":[0.0,
		0.0,
		0.0,
		-1.0],
		"scale":[1.0,
		1.0,
		1.0],
		"children":[6,
		7]
	},
	{
		"name":"leg2-dark_grey",
		"mesh":3
	},
	{
		"name":"leg2-blue",
		"mesh":4
	},
	{
		"name":"leg3",
		"translation":[0.35505804419517519,
		2.2784807682037355,
		6.157210826873779],
		"rotation":[0.0,
		0.0,
		0.0,
		-1.0],
		"scale":[1.0,
		1.0,
		1.0],
		"children":[9,
		10]
	},
	{
		"name":"leg3-dark_grey",
		"mesh":5
	},
	{
		"name":"leg3-blue",
		"mesh":6
	},
	{
		"name":"panel",
		"translation":[0.2648313343524933,
		4.860093116760254,
		-3.2432484577505786e-17],
		"rotation":[0.0,
		0.0,
		0.0,
		-1.0],
		"scale":[1.0,
		1.0,
		1.0],
		"children":[12,
		13]
	},
	{
		"name":"panel-dark_grey",
		"mesh":7
	},
	{
		"name":"panel-Mat.1",
		"mesh":8
	}],
	"meshes":[{
		"name":"logo",
		"primitives":[{
			"attributes":{
				"POSITION":1,
				"TEXCOORD_0":2
			},
			"indices":0,
			"material":0
		}]
	},
	{
		"name":"leg1-dark_grey",
		"primitives":[{
			"attributes":{
				"POSITION":4
			},
			"indices":3,
			"material":1
		}]
	},
	{
		"name":"leg1-blue",
		"primitives":[{
			"attributes":{
				"POSITION":6
			},
			"indices":5,
			"material":2
		}]
	},
	{
		"name":"leg2-dark_grey",
		"primitives":[{
			"attributes":{
				"POSITION":8
			},
			"indices":7,
			"material":1
		}]
	},
	{
		"name":"leg2-blue",
		"primitives":[{
			"attributes":{
				"POSITION":10
			},
			"indices":9,
			"material":2
		}]
	},
	{
		"name":"leg3-dark_grey",
		"primitives":[{
			"attributes":{
				"POSITION":12
			},
			"indices":11,
			"material":1
		}]
	},
	{
		"name":"leg3-blue",
		"primitives":[{
			"attributes":{
				"POSITION":14
			},
			"indices":13,
			"material":2
		}]
	},
	{
		"name":"panel-dark_grey",
		"primitives":[{
			"attributes":{
				"POSITION":16
			},
			"indices":15,
			"material":1
		}]
	},
	{
		"name":"panel-Mat.1",
		"primitives":[{
			"attributes":{
				"POSITION":18
			},
			"indices":17,
			"material":3
		}]
	}],
	"accessors":[{
		"bufferView":0,
		"type":"SCALAR",
		"min":[0],
		"componentType":5123,
		"count":6,
		"byteOffset":0,
		"max":[3]
	},
	{
		"bufferView":1,
		"type":"VEC3",
		"min":[-2.633530378341675,
		-3.182733922604559e-15,
		-2.633530378341675],
		"componentType":5126,
		"count":4,
		"byteOffset":0,
		"max":[2.633530378341675,
		-3.1377374148640424e-15,
		2.633530378341675]
	},
	{
		"bufferView":1,
		"type":"VEC2",
		"min":[0.021153844892978669,
		0.021153844892978669],
		"componentType":5126,
		"count":4,
		"byteOffset":12,
		"max":[0.9788460731506348,
		0.9788460731506348]
	},
	{
		"bufferView":2,
		"type":"SCALAR",
		"min":[0],
		"componentType":5123,
		"count":114,
		"byteOffset":0,
		"max":[35]
	},
	{
		"bufferView":3,
		"type":"VEC3",
		"min":[-1.8123606443405152,
		-2.2784807682037355,
		-0.7490215301513672],
		"componentType":5126,
		"count":36,
		"byteOffset":0,
		"max":[1.806175947189331,
		3.2173514366149904,
		0.7490215301513672]
	},
	{
		"bufferView":4,
		"type":"SCALAR",
		"min":[0],
		"componentType":5123,
		"count":138,
		"byteOffset":0,
		"max":[32]
	},
	{
		"bufferView":5,
		"type":"VEC3",
		"min":[-2.3603086471557619,
		-2.0516433715820314,
		-0.5015596151351929],
		"componentType":5126,
		"count":33,
		"byteOffset":0,
		"max":[2.385401487350464,
		3.493227243423462,
		0.5015596151351929]
	},
	{
		"bufferView":6,
		"type":"SCALAR",
		"min":[0],
		"componentType":5123,
		"count":114,
		"byteOffset":0,
		"max":[35]
	},
	{
		"bufferView":7,
		"type":"VEC3",
		"min":[-1.8123606443405152,
		-2.2784807682037355,
		-0.7490215301513672],
		"componentType":5126,
		"count":36,
		"byteOffset":0,
		"max":[1.806175947189331,
		3.2173514366149904,
		0.7490215301513672]
	},
	{
		"bufferView":8,
		"type":"SCALAR",
		"min":[0],
		"componentType":5123,
		"count":138,
		"byteOffset":0,
		"max":[32]
	},
	{
		"bufferView":9,
		"type":"VEC3",
		"min":[-2.3603086471557619,
		-2.0516433715820314,
		-0.5015596151351929],
		"componentType":5126,
		"count":33,
		"byteOffset":0,
		"max":[2.385401487350464,
		3.493227243423462,
		0.5015596151351929]
	},
	{
		"bufferView":10,
		"type":"SCALAR",
		"min":[0],
		"componentType":5123,
		"count":114,
		"byteOffset":0,
		"max":[35]
	},
	{
		"bufferView":11,
		"type":"VEC3",
		"min":[-1.8123606443405152,
		-2.2784807682037355,
		-0.7490215301513672],
		"componentType":5126,
		"count":36,
		"byteOffset":0,
		"max":[1.806175947189331,
		3.2173514366149904,
		0.7490215301513672]
	},
	{
		"bufferView":12,
		"type":"SCALAR",
		"min":[0],
		"componentType":5123,
		"count":138,
		"byteOffset":0,
		"max":[32]
	},
	{
		"bufferView":13,
		"type":"VEC3",
		"min":[-2.3603086471557619,
		-2.0516433715820314,
		-0.5015596151351929],
		"componentType":5126,
		"count":33,
		"byteOffset":0,
		"max":[2.385401487350464,
		3.493227243423462,
		0.5015596151351929]
	},
	{
		"bufferView":14,
		"type":"SCALAR",
		"min":[0],
		"componentType":5123,
		"count":108,
		"byteOffset":0,
		"max":[47]
	},
	{
		"bufferView":15,
		"type":"VEC3",
		"min":[-2.8945062160491945,
		-1.7413736581802369,
		-8.249756813049317],
		"componentType":5126,
		"count":48,
		"byteOffset":0,
		"max":[3.1285369396209719,
		1.389362096786499,
		8.249756813049317]
	},
	{
		"bufferView":16,
		"type":"SCALAR",
		"min":[0],
		"componentType":5123,
		"count":6,
		"byteOffset":0,
		"max":[3]
	},
	{
		"bufferView":17,
		"type":"VEC3",
		"min":[-2.785578489303589,
		-1.5421850681304932,
		-8.12788200378418],
		"componentType":5126,
		"count":4,
		"byteOffset":0,
		"max":[2.9470813274383547,
		1.3346977233886719,
		8.12788200378418]
	}],
	"bufferViews":[{
		"buffer":0,
		"byteOffset":0,
		"byteLength":12,
		"target":34963
	},
	{
		"buffer":0,
		"byteOffset":12,
		"byteLength":80,
		"target":34962,
		"byteStride":20
	},
	{
		"buffer":1,
		"byteOffset":0,
		"byteLength":228,
		"target":34963
	},
	{
		"buffer":1,
		"byteOffset":228,
		"byteLength":432,
		"target":34962
	},
	{
		"buffer":2,
		"byteOffset":0,
		"byteLength":276,
		"target":34963
	},
	{
		"buffer":2,
		"byteOffset":276,
		"byteLength":396,
		"target":34962
	},
	{
		"buffer":3,
		"byteOffset":0,
		"byteLength":228,
		"target":34963
	},
	{
		"buffer":3,
		"byteOffset":228,
		"byteLength":432,
		"target":34962
	},
	{
		"buffer":4,
		"byteOffset":0,
		"byteLength":276,
		"target":34963
	},
	{
		"buffer":4,
		"byteOffset":276,
		"byteLength":396,
		"target":34962
	},
	{
		"buffer":5,
		"byteOffset":0,
		"byteLength":228,
		"target":34963
	},
	{
		"buffer":5,
		"byteOffset":228,
		"byteLength":432,
		"target":34962
	},
	{
		"buffer":6,
		"byteOffset":0,
		"byteLength":276,
		"target":34963
	},
	{
		"buffer":6,
		"byteOffset":276,
		"byteLength":396,
		"target":34962
	},
	{
		"buffer":7,
		"byteOffset":0,
		"byteLength":216,
		"target":34963
	},
	{
		"buffer":7,
		"byteOffset":216,
		"byteLength":576,
		"target":34962
	},
	{
		"buffer":8,
		"byteOffset":0,
		"byteLength":12,
		"target":34963
	},
	{
		"buffer":8,
		"byteOffset":12,
		"byteLength":48,
		"target":34962
	}],
	"buffers":[{
		"uri":"data:application/octet-stream;base64,",
		"byteLength":92
	},
	{
		"uri":"data:application/octet-stream;base64,",
		"byteLength":660
	},
	{
		"uri":"data:application/octet-stream;base64,",
		"byteLength":672
	},
	{
		"uri":"data:application/octet-stream;base64,",
		"byteLength":660
	},
	{
		"uri":"data:application/octet-stream;base64,",
		"byteLength":672
	},
	{
		"uri":"data:application/octet-stream;base64,",
		"byteLength":660
	},
	{
		"uri":"data:application/octet-stream;base64,",
		"byteLength":672
	},
	{
		"uri":"data:application/octet-stream;base64,",
		"byteLength":792
	},
	{
		"uri":"data:application/octet-stream;base64,",
		"byteLength":60
	}],
	"images":[{
		"uri":"data:image/png;base64,"
	}],
	"textures":[{
		"sampler":0,
		"source":0
	}],
	"samplers":[{
		"magFilter":9729,
		"minFilter":9729,
		"wrapS":10497,
		"wrapT":10497
	}],
	"materials":[{
		"emissiveFactor":[0.0,
		0.0,
		0.0],
		"pbrMetallicRoughness":{
			"baseColorTexture":{
				"index":0
			},
			"baseColorFactor":[0.8,
			0.8,
			0.8,
			1.0],
			"metallicFactor":1.0,
			"roughnessFactor":1.0
		},
		"alphaMode":"BLEND",
		"doubleSided":true,
		"name":"logo_light"
	},
	{
		"emissiveFactor":[0.0,
		0.0,
		0.0],
		"pbrMetallicRoughness":{
			"baseColorFactor":[0.14901960784313726,
			0.14901960784313726,
			0.14901960784313726,
			1.0],
			"metallicFactor":0.0,
			"roughnessFactor":0.5
		},
		"alphaMode":"OPAQUE",
		"doubleSided":true,
		"name":"dark_grey"
	},
	{
		"emissiveFactor":[0.0,
		0.0,
		0.0],
		"pbrMetallicRoughness":{
			"baseColorFactor":[0.0,
			0.9686274509803923,
			1.0,
			1.0],
			"metallicFactor":0.0,
			"roughnessFactor":0.5
		},
		"alphaMode":"OPAQUE",
		"doubleSided":true,
		"name":"blue"
	},
	{
		"emissiveFactor":[0.0,
		0.0,
		0.0],
		"pbrMetallicRoughness":{
			"baseColorFactor":[0.10950000000000002,
			0.28521681729831219,
			0.73,
			1.0],
			"metallicFactor":1.0,
			"roughnessFactor":0.0
		},
		"alphaMode":"OPAQUE",
		"doubleSided":true,
		"name":"Mat.1"
	}]
}